# xmcd
#
# Track frame offsets:
#	150
#	21532
#	39080
#	69403
#	99949
#	120935
#	140692
#	162480
#
# Disc length: 2527 seconds
#
# Revision: 0
# Processed by: cddbd v1.5.2PL0 Copyright (c) Steve Scherf et al.
# Submitted via: EasyCDDAExtractor 11.5.3.1
#
DISCID=6209dd08
DTITLE=T-Bone Walker - Live From Montreux
DYEAR=1972
DGENRE=Blues
TTITLE0=Call It Stormy Monday - Reconsider
TTITLE1=Chutes De Pierres
TTITLE2=Why Am I Treated So Bad
TTITLE3=When I Grow Up
TTITLE4=Goin' Back To Church
TTITLE5=Shake It Baby (Introducing the Band)
TTITLE6=In An Awful Mood - Goodbye Baby
TTITLE7=Sail On Little Girl
EXTD=
EXTT0=
EXTT1=
EXTT2=
EXTT3=
EXTT4=
EXTT5=
EXTT6=
EXTT7=
PLAYORDER=
